<?xml version="1.0" encoding="UTF-8" standalone="no"?>
<svg
   id="Layer_2"
   data-name="Layer 2"
   viewBox="0 0 42 42"
   version="1.1"
   sodipodi:docname="9ebc3463631fa40dcceaf2bfccc93927.svg"
   width="42"
   height="42"
   xmlns:inkscape="http://www.inkscape.org/namespaces/inkscape"
   xmlns:sodipodi="http://sodipodi.sourceforge.net/DTD/sodipodi-0.dtd"
   xmlns="http://www.w3.org/2000/svg"
   xmlns:svg="http://www.w3.org/2000/svg">
  <sodipodi:namedview
     id="namedview23"
     pagecolor="#ffffff"
     bordercolor="#666666"
     borderopacity="1.0"
     inkscape:pageshadow="2"
     inkscape:pageopacity="0.0"
     inkscape:pagecheckerboard="0" />
  <defs
     id="defs4">
    <style
       id="style2">.cls-1{fill:#092e20;}.cls-2{fill:#fff;}</style>
  </defs>
  <title
     id="title6">Django</title>
  <circle
     class="cls-1"
     cx="21"
     cy="21"
     r="21"
     id="circle8" />
  <path
     class="cls-2"
     d="m 7.18,15.68 h 2 v 9.16 a 13.3,13.3 0 0 1 -2.57,0.27 c -2.42,0 -3.68,-1.09 -3.68,-3.19 A 3.17,3.17 0 0 1 6.34,18.59 3.07,3.07 0 0 1 7.2,18.7 v -3 z m 0,4.61 a 1.91,1.91 0 0 0 -0.67,-0.1 1.49,1.49 0 0 0 -1.58,1.69 1.44,1.44 0 0 0 1.57,1.63 4.35,4.35 0 0 0 0.68,-0.05 z"
     id="path10" />
  <path
     class="cls-2"
     d="m 12.3,18.74 v 4.58 a 6.14,6.14 0 0 1 -0.46,3 3.18,3.18 0 0 1 -1.62,1.46 L 8.39,26.91 A 2.87,2.87 0 0 0 10,25.58 6.28,6.28 0 0 0 10.38,22.64 v -3.9 z m -2,-3 h 2 v 2 h -2 z"
     id="path12" />
  <path
     class="cls-2"
     d="m 13.5,19.19 a 5.83,5.83 0 0 1 2.62,-0.6 c 1,0 1.68,0.27 2,0.8 a 3.13,3.13 0 0 1 0.22,1.5 v 4 a 21.64,21.64 0 0 1 -2.83,0.22 c -1.66,0 -2.4,-0.57 -2.4,-1.86 0,-1.29 1,-2 3.41,-2.23 V 20.6 c 0,-0.36 -0.18,-0.49 -0.68,-0.49 a 5.27,5.27 0 0 0 -2.32,0.6 v -1.52 z m 3.09,3.14 c -1.31,0.13 -1.73,0.34 -1.73,0.85 0,0.51 0.24,0.57 0.78,0.57 a 5.8,5.8 0 0 0 0.95,-0.09 z"
     id="path14" />
  <path
     class="cls-2"
     d="m 19.28,19 a 12.22,12.22 0 0 1 3.11,-0.45 3,3 0 0 1 2.18,0.69 2.33,2.33 0 0 1 0.54,1.87 V 25 h -2 v -3.8 c 0,-0.76 -0.25,-1 -1,-1 A 2.84,2.84 0 0 0 21.2,20.34 V 25 h -2 v -6 z"
     id="path16" />
  <path
     class="cls-2"
     d="M 25.88,26.11 A 4.5,4.5 0 0 0 28,26.64 c 1.3,0 1.85,-0.53 1.85,-1.79 v 0 a 2.76,2.76 0 0 1 -1.29,0.27 2.7,2.7 0 0 1 -2.83,-2.95 c 0,-2.25 1.63,-3.52 4.52,-3.52 a 12.62,12.62 0 0 1 2.58,0.28 l -0.68,1.43 c -0.52,-0.11 0,0 -0.44,-0.06 v 0.21 0.84 1.07 c 0,0.27 0,0.54 0,0.81 v 0.54 a 5.53,5.53 0 0 1 -0.57,3.15 3.51,3.51 0 0 1 -3.14,1.4 5.63,5.63 0 0 1 -2.13,-0.39 v -1.82 z m 3.93,-5.91 h -0.2 a 2.23,2.23 0 0 0 -1.15,0.28 1.54,1.54 0 0 0 -0.72,1.45 c 0,1 0.49,1.56 1.36,1.56 a 2.41,2.41 0 0 0 0.75,-0.13 v -0.68 c 0,-0.23 0,-0.49 0,-0.76 V 21.01 20.2 Z"
     id="path18" />
  <path
     class="cls-2"
     d="m 35.9,18.57 a 3,3 0 0 1 3.19,3.26 3.09,3.09 0 0 1 -3.27,3.37 3,3 0 0 1 -3.2,-3.2 3.1,3.1 0 0 1 3.28,-3.43 z m 0,5 c 0.76,0 1.21,-0.62 1.21,-1.72 0,-1.1 -0.44,-1.72 -1.19,-1.72 -0.75,0 -1.24,0.63 -1.24,1.72 0,1.09 0.41,1.75 1.18,1.75 z"
     id="path20" />
</svg>
